PathFileType	4	(X/Y/Z)	56_2_17_p0_0-219_filt_butterworth.trc
DataRate	CameraRate	NumFrames	NumMarkers	Units	OrigDataRate	OrigDataStartFrame	OrigNumFrames
59.0	59.0	6	27	m	59.0	164	219
Frame#	Time	RHip			RKnee			RAnkle			RBigToe			RSmallToe			RHeel			LHip			LKnee			LAnkle			LBigToe			LSmallToe			LHeel			Neck			Head			Nose			RShoulder			RElbow			RWrist			RThumb			RIndex			RPinky			LShoulder			LElbow			LWrist			LThumb			LIndex			LPinky			
		X1	Y1	Z1	X2	Y2	Z2	X3	Y3	Z3	X4	Y4	Z4	X5	Y5	Z5	X6	Y6	Z6	X7	Y7	Z7	X8	Y8	Z8	X9	Y9	Z9	X10	Y10	Z10	X11	Y11	Z11	X12	Y12	Z12	X13	Y13	Z13	X14	Y14	Z14	X15	Y15	Z15	X16	Y16	Z16	X17	Y17	Z17	X18	Y18	Z18	X19	Y19	Z19	X20	Y20	Z20	X21	Y21	Z21	X22	Y22	Z22	X23	Y23	Z23	X24	Y24	Z24	X25	Y25	Z25	X26	Y26	Z26	X27	Y27	Z27	
164	2.7796610169491527	0.4631756231551209	0.5288190814569218	0.9890650130685557	0.4528458576925522	0.09842391571542058	0.9478118790900161	0.48226725147538174	-0.37517594322785974	1.0018181414527465	0.40972976198337424	-0.35048636320588594	0.7955474987591578	0.4761186829529206	-0.38115295125909504	0.828275459014575	0.5087989155993792	-0.45343653976186066	1.0803985404824064	0.267143659881769	0.5179529454838455	1.0713162813714279	0.3004394982210398	0.07226570653691977	1.0520444875356487	0.32571300335756986	-0.3452426955613712	1.0537472099149057	0.2495784324947733	-0.3596324639388598	0.8442830415731143	0.23042117356849046	-0.39367373721505505	0.9185779233073987	0.3533900888528656	-0.4265008876397032	1.1009096770048628	0.3541608295836334	1.014591259893529	1.0210354286283263	0.327352212681462	1.2833698609118005	0.9461718148246978	0.2905685943279639	1.1405843261071997	0.9018434452693407	0.49045704114144517	0.9523882661193932	0.9437443022774739	0.5270092210152519	0.7077460501723449	0.829823029034038	0.4761157943966982	0.4854945557338328	0.7001501943727256	0.40503894114200134	0.400633810062516	0.6583008654568929	0.41710341140870255	0.38948714361057635	0.6291722253483077	0.47125160928303533	0.3652448915941789	0.6542598261043173	0.22165560900629422	0.958151300969067	1.1042136331728587	0.1543727748953535	0.7243922122683656	1.0146143211212273	0.15486628314059253	0.5964321286441215	0.788198749163282	0.21361576789633122	0.5578558021562208	0.6698005158595075	0.19072016709036277	0.5433524733331119	0.648247882630608	0.1365398009703898	0.5111431552420929	0.6728072193876311	
165	2.796610169491525	0.46162982851417667	0.528373038523738	0.9875507007987759	0.45437687203361665	0.09692674863401579	0.9493196669010704	0.4829101063638363	-0.37541530065761786	1.0023571610542767	0.4108428164037328	-0.35150952637977867	0.7969268080105991	0.4761160794220056	-0.3811938973618645	0.8287274058676326	0.5090080118033428	-0.453988537355413	1.0807581406643487	0.2675523832993164	0.5180298643659081	1.0706966595978056	0.30007239127649116	0.07317407078417382	1.0520390329729699	0.3250611174264348	-0.3442044662739335	1.0529780403833116	0.2500980358587008	-0.3607276029130167	0.8456745084698182	0.23041738075219204	-0.3942632038810131	0.918682738652046	0.3525881061671786	-0.4255734641282846	1.100023605732975	0.35405843002519816	1.0154302432764999	1.0213083873943045	0.3287778344284481	1.2838315340388609	0.9505532489449477	0.29054421839024963	1.141553948186754	0.9022597652263883	0.49134672819438097	0.952040391102713	0.943626755918749	0.5159004171894652	0.7052939793296953	0.8254506669396418	0.45106446961297697	0.4875265883241503	0.7085936284841019	0.3724452683963039	0.4063279796520207	0.6706868589116959	0.3833117237556678	0.3907849788557044	0.6365317035899375	0.4298141276619363	0.36869700866489674	0.6560271738766289	0.22173220482679007	0.958135878513906	1.1044183138900063	0.16113345322192282	0.7264679589609213	1.000737289951633	0.1761756594503492	0.6048336632472735	0.7746046131552566	0.2423206949388924	0.5620241292551612	0.6696085810579442	0.22403306517334426	0.5472453026527326	0.6492007579058261	0.17047809213094717	0.5178083567582115	0.6666819764077596	
166	2.8135593220338984	0.4599536793313512	0.5279147738238672	0.9859142264128153	0.45604115147641605	0.09543754833483453	0.9508581896721047	0.4833396207152295	-0.3755675244068984	1.002735088922936	0.4106753909080317	-0.35206081309707493	0.7967805111758115	0.47588534329661747	-0.380980354346061	0.8284707043934351	0.50916625704881	-0.45435322670439315	1.0810405793731732	0.26782226136321213	0.5181005207950109	1.06980511607807	0.29974032806061696	0.07395852904945233	1.052032136474911	0.3243662096675117	-0.3432223619609039	1.0520889985558695	0.25111209098219206	-0.360958635225967	0.8462669988552594	0.23035777961067544	-0.3950729709169767	0.9188040017830776	0.3519995886621953	-0.42485745650577167	1.0995037089505402	0.3539342877490448	1.0163629233527574	1.0217177845995433	0.33031181053117453	1.284257020833776	0.9548378146417448	0.29038344429924373	1.1427915835424634	0.9024054585105781	0.49212693248356426	0.9518139410893021	0.9433418360020844	0.5077183754650063	0.7029456275585435	0.8283699218785046	0.428496457281871	0.49235608473671844	0.7202770809028187	0.344163206449307	0.41680063109025145	0.6798441936363342	0.35516995352926684	0.39332227946865117	0.6473694815429115	0.39227629315001145	0.37287337539705856	0.6664083576903426	0.2219060613978736	0.957983950367673	1.1049057319583055	0.16821558792059338	0.7279335750211207	0.9923097978363942	0.1960349406910912	0.6095602838220774	0.7651603342028728	0.2687357583916934	0.5573965543446965	0.6759425576989204	0.2550767134297849	0.5414304443149435	0.6569972896015452	0.20327345825787296	0.5183838412761044	0.6669881685275891	
167	2.830508474576271	0.45831336072395634	0.5274755576997705	0.9841615370820171	0.4578120164777539	0.09398043025279007	0.9523232009048759	0.4836494411680884	-0.37563757743592696	1.0030200023580687	0.4097880508340358	-0.3523136448681047	0.7958770756377299	0.47558582404851935	-0.38068832462653845	0.8279091328844465	0.5092636499819637	-0.4544818943805047	1.0812321522712889	0.26788515309988087	0.5181608165754577	1.0686534293797307	0.29947656094648145	0.07458646095605942	1.052014669225355	0.32364396087895614	-0.3422964188157289	1.0511088064956504	0.2524659591304301	-0.3606216507056656	0.8461461615792741	0.23023629364397277	-0.39587446311310837	0.9189191813137405	0.3515226628628621	-0.4240331197201357	1.0989942514728066	0.3538005806734175	1.017375559803924	1.0219779291692674	0.3317241695810157	1.2847046274602403	0.9584562607779271	0.29017269702559473	1.1443897495070914	0.9019627377632042	0.4927106087864021	0.9517121695723824	0.9429462765467173	0.5026049240730673	0.7011402509269827	0.8388554627228845	0.407903915659282	0.5001878739578857	0.7322538681532325	0.32214835448531787	0.4297536467926618	0.6871496472771962	0.3333180869024779	0.3965049231686295	0.6639106416672287	0.36061122917641064	0.3788500645707906	0.6841371715153007	0.22204263278589365	0.957854873423442	1.1052169167831423	0.17487303188594777	0.7290882318456692	0.988655424753855	0.21429243279848526	0.6100449980027194	0.7604563018541941	0.2913336200492651	0.5476739754940262	0.684605033347768	0.28135154647405025	0.5289679691758026	0.6673641892853414	0.23277631801001986	0.513318613401587	0.6724653649993848	
168	2.847457627118644	0.45676797938755553	0.527165498896915	0.9822881777098902	0.45951731457814854	0.09269539540233213	0.9535599362739224	0.4839473104894877	-0.3757161648941666	1.0033546639551203	0.40880351236934875	-0.3524256210173416	0.7951537843510416	0.4753853282934253	-0.38048058725120426	0.8274762905913399	0.5092336927537485	-0.45433058113875413	1.0812480554713453	0.26768138958295584	0.5182603455047325	1.0672776329528104	0.29928177819184815	0.07509271038263327	1.0519876384387734	0.32290984272758083	-0.3414061478042077	1.0500789654984901	0.2538565271162492	-0.36021465145443576	0.8457816767466584	0.2300774467421966	-0.39644029798176056	0.9189992407087462	0.35104198131067543	-0.42296813580343223	1.0982476605617741	0.3536575957595083	1.018453683094122	1.0215779413831223	0.3328173956826893	1.2851990482925033	0.9610754586947181	0.290151970476938	1.1461810375382713	0.9009369397990759	0.4930509186341727	0.9515873964819308	0.9425379724329905	0.499846461861465	0.7000591516553085	0.854874585529932	0.3887838917012113	0.5102442950923771	0.7428495007672293	0.30670007239191155	0.441636107439038	0.6955967812763073	0.31767181961084845	0.3994365346692391	0.6866065721803982	0.3363258891746167	0.38752904860294846	0.7055166414471556	0.2218820627642062	0.9578618618414019	1.1049333737861171	0.1803686348828913	0.7302108435101531	0.9875338543649916	0.2305557676419693	0.6068759440936933	0.7600164694313727	0.3081599934719274	0.5373186381440993	0.6911249527111094	0.3005192220594637	0.5140451559411905	0.6763899582451828	0.25715439119847083	0.5040495219473708	0.6814835660258178	
169	2.864406779661017	0.4552935169572976	0.5271992822200663	0.9803246627560493	0.4609767696114311	0.09178214473256163	0.9544460781286583	0.48425675350969	-0.3758731633544176	1.003832477368945	0.40803507280178214	-0.35244777791883075	0.7949915443234906	0.4753591297921698	-0.38039081775123434	0.8273186019535694	0.5090458365394387	-0.45391226181284605	1.0810639727381919	0.26720120866876546	0.518489900857294	1.0657300819171551	0.29914798393703207	0.07555289307635543	1.0519763066525722	0.3221795119345489	-0.34054112365477945	1.0490382118484447	0.255046009369705	-0.35997819129173475	0.845639891335762	0.2299266603949005	-0.396641126102514	0.9190239194502684	0.3504937305885578	-0.4217071518246339	1.0972119660903628	0.35350799206331074	1.0195557805516815	1.0201892496484963	0.3334523289255531	1.2857016815532245	0.9627501714840858	0.2905304290540121	1.1478893057024024	0.8996378251777106	0.4931833929615379	0.9511439136383522	0.9422098506480284	0.49808440074365146	0.6998018699356442	0.8726261565435505	0.37136456133462736	0.5209204963945506	0.7520669082530567	0.29610256429176096	0.4496250767470256	0.7066098684850799	0.307472676706909	0.4011755132874408	0.7140733188915586	0.319893465870277	0.39820008847040333	0.727665011555606	0.2212409279526736	0.9580570551738476	1.103816681596022	0.18423463788460956	0.7314085515306983	0.986555263395385	0.24447641072230403	0.6012297918168545	0.7634915141546337	0.3181810945264088	0.5292432348518612	0.6933086422929309	0.3117395719443979	0.4998766891162195	0.6828243021428957	0.275563949988536	0.4929997595941976	0.6928932240581371	
